<svg version="1.2" xmlns="http://www.w3.org/2000/svg" viewBox="0 0 347 962" width="347" height="962">
	<path id="tam-path" fill-rule="evenodd" d="m152 909c-29.82-46.61 15.93-109.29 37.09-127.43 7.55-6.48 11.35-5.21 21.56-6.99 20.81-3.62 48.92 0.1 59.35-1.58 16.36-2.64 16.23-0.17 15 3-1.23 3.19-15.9 17.68-5 27 22.25 19.02 3.5 53.73-11 63-8.43 5.39-9.45 4.35-2 9 16.45 10.27 30.47 52.96 29 61-1.47 8.07-2.98 9.01-7 3-20.56-30.73-47.24-40.07-60-39-30.06 2.53-34.01 6.11-31-5 6.57-24.2 33.7-31.13 47-34 9.67-2.09 15.18-1.03 15-12-1.13-67.87-116-46.43-81 26 2.43 5.02 1.41 5.98-0.02 10.04-2.56 7.25-15.5 24.67-18.98 26.96-3.65 2.4-2.94 4.91-8-3zm-93-617c2.74-3.63 4.55-6.08 9-6 8.17 0.15 198.67-1 203-1 4.33 0 9.26-0.11 11 3 1.74 3.11 1.4 2.17 2 5 0.6 2.83-1.38 10.15-4 14-2.62 3.85-21.01 35.74-23 38-1.99 2.26-1.17 3.95-6 4-4.28 0.04-144.17 0.01-175 0-3.96 0-3 3-3 3 0 0 23.81 111.16 38.32 163.73 61.46-191.24 386.61-94.1 93.34 250.64-10.09 11.87-22.61 14.23-4.14-9.68 162.88-210.87 11.93-364.06-66.52-245.69-25.23 38.07-7.66 83.41-8.81 124.38-0.98 35.26-4.06 9.49-6.19 2.62-5.16-16.69-46.86-197.28-97.74-291.36-2.55-4.72-0.93-7.24 1.51-10.84 3.67-5.41 33.49-40.17 36.23-43.8zm45.35-104.02c24.08 50.92 115.32 52.49 148.06 6.19 11.19-15.83 17.31-27.15 12.24-3.61-21.51 99.91-160.27 95.13-173.35-4.44-4.87-37.11 7.86-9.12 13.05 1.86zm75.65-77.98c-18.91-0.72-43.87 11.22-45 27-1.13 15.78 9.13 19.7 16 23 6.87 3.3 39.19 8.46 56 0 16.81-8.46 20.03-15.25 18-24-2.03-8.75-1.4-24.34-45-26zm-10-37c-3.24-2.93-14.34-21.65-2-34 12.34-12.35 3.79-19.79 7.77-23.98 5.57-5.87 7.08-5.46 6.37 2-0.43 4.5 16.04 9.12 7.86 22.98-6.75 11.45 11.64 17.96 2.34 31.44-3.69 5.34-2.73 2.86 2.66 4.56 23.63 7.46 38.25 20.39 47 43 9.13 23.59 2.63 51.42-17 68-24.1 20.35-44.72 17.36-62 14-17.2-3.34-47.93-27.7-46-54.01 2.94-40.04 11.15-61.87 51-71.99 3.1-0.79 5.24 0.93 2-2z"/>
</svg>